<?xml version="1.0" standalone="no"?>
<!DOCTYPE svg PUBLIC "-//W3C//DTD SVG 20010904//EN"
 "http://www.w3.org/TR/2001/REC-SVG-20010904/DTD/svg10.dtd">
<svg version="1.0" xmlns="http://www.w3.org/2000/svg"
 xmlns:xlink="http://www.w3.org/1999/xlink"
 width="3600.000000pt" height="1425.000000pt" viewBox="0 0 3600 1425"
 preserveAspectRatio="xMidYMid meet">
<defs>
<g id="ship-base">
<g transform="translate(0.000000,1353.000000) scale(0.100000,-0.100000)"
fill="currentColor" stroke="none">
<path d="M8089 13464 l-24 -26 -2 -5551 c-2 -3054 -5 -5558 -8 -5564 -3 -10
-167 -13 -752 -15 l-747 -3 -76 -114 c-41 -63 -85 -117 -97 -122 -12 -4 -55
-2 -100 6 -43 8 -103 15 -133 15 -30 0 -100 7 -155 15 -55 8 -124 15 -152 15
-29 0 -72 4 -95 10 -37 8 -186 24 -468 50 -187 18 -314 31 -425 44 -66 9 -194
22 -285 31 -91 8 -196 20 -235 25 -38 5 -128 14 -200 20 -71 6 -137 13 -145
15 -9 3 -65 9 -125 15 -182 16 -378 39 -420 49 -22 6 -60 11 -85 11 -25 0 -63
5 -84 11 -22 6 -72 15 -110 19 -39 5 -105 13 -146 19 -139 21 -275 42 -335 52
-33 5 -91 14 -130 19 -38 4 -101 13 -140 19 -38 6 -119 18 -180 27 -60 8 -132
19 -160 24 -27 5 -75 12 -105 15 -30 3 -93 12 -140 20 -47 8 -139 21 -205 30
-66 9 -140 20 -165 26 -25 5 -81 14 -125 19 -44 4 -109 13 -145 19 -193 32
-258 41 -302 41 -61 0 -55 -16 10 -26 26 -3 67 -12 92 -19 25 -7 81 -21 125
-30 44 -10 103 -24 130 -31 28 -7 106 -27 175 -44 69 -16 148 -36 175 -44 28
-8 79 -23 115 -32 36 -9 85 -23 110 -29 25 -7 72 -20 105 -29 76 -21 254 -76
280 -87 11 -5 49 -18 85 -29 36 -12 79 -28 95 -35 17 -7 68 -28 115 -45 92
-34 288 -116 385 -160 254 -117 390 -185 570 -286 22 -13 51 -29 65 -36 14 -8
58 -34 98 -59 40 -24 81 -48 90 -54 99 -58 334 -226 452 -324 233 -193 489
-473 742 -811 52 -70 246 -359 313 -467 l30 -48 1285 -6 c707 -3 3127 -10
5378 -14 l4092 -7 53 39 c67 52 207 189 283 278 185 219 341 471 434 705 12
30 26 64 31 75 7 18 33 96 59 180 18 61 50 204 50 226 0 13 7 56 15 94 18 84
21 445 5 461 -8 8 -426 9 -1356 6 -958 -3 -1348 -2 -1356 6 -7 7 -12 125 -14
354 -2 189 -4 349 -4 356 0 9 -41 12 -170 12 -151 0 -170 2 -178 18 -11 21
-10 582 1 600 7 9 428 12 2053 12 1628 0 2044 3 2044 13 0 12 -27 67 -117 237
-59 112 -216 409 -298 565 -32 61 -73 139 -93 175 -19 36 -66 126 -104 200
-39 74 -80 153 -93 175 -12 22 -53 99 -90 170 -37 72 -85 162 -105 200 -21 39
-68 129 -105 200 -146 280 -178 341 -200 380 -13 22 -49 90 -80 150 -158 302
-245 469 -320 610 -23 44 -68 130 -100 190 -32 61 -74 139 -93 175 -19 36 -61
115 -92 175 -31 61 -78 151 -105 200 -26 50 -73 140 -105 200 -56 109 -125
238 -203 385 -22 41 -62 118 -89 170 -28 52 -69 131 -93 175 -24 44 -67 127
-97 185 -30 58 -71 134 -90 170 -20 36 -69 130 -111 210 -41 80 -94 181 -117
225 -23 44 -67 127 -97 185 -31 58 -66 123 -78 145 -13 22 -54 101 -92 175
-39 74 -86 164 -105 200 -49 90 -127 239 -216 410 -41 80 -87 168 -102 195
-33 60 -112 209 -190 360 -111 213 -243 462 -289 545 l-36 65 0 302 0 302 -29
30 c-41 42 -85 42 -120 0 l-26 -31 0 -4513 c0 -4453 0 -4514 -19 -4525 -13 -7
-460 -10 -1375 -10 l-1355 0 -31 -44 c-16 -25 -30 -48 -30 -52 0 -4 -22 -44
-50 -90 -27 -46 -50 -85 -50 -87 0 -13 -113 -194 -127 -204 -22 -17 -2374 -6
-2385 11 -4 6 -8 250 -8 542 0 399 3 533 12 542 9 9 584 12 2524 12 1504 0
2515 4 2518 9 5 8 -71 167 -94 196 -4 6 -37 66 -72 135 -36 69 -74 141 -85
160 -11 19 -46 85 -78 145 -31 61 -61 115 -65 120 -4 6 -29 53 -56 105 -26 52
-60 115 -75 140 -14 25 -55 101 -91 170 -36 69 -76 145 -90 170 -31 55 -117
218 -173 325 -23 44 -51 96 -62 115 -11 19 -40 73 -65 120 -25 47 -94 175
-153 285 -59 109 -132 247 -162 304 -31 58 -64 119 -74 136 -10 16 -25 44 -32
60 -15 32 -201 380 -217 405 -5 8 -24 44 -43 80 -32 64 -102 195 -157 295 -15
28 -50 93 -78 145 -61 118 -116 220 -152 285 -15 28 -45 84 -67 125 -22 41
-61 113 -86 160 -105 193 -118 218 -146 275 -17 33 -43 83 -59 110 -16 28 -53
97 -84 155 -30 58 -69 130 -85 160 -17 30 -49 91 -73 135 -23 44 -58 109 -78
145 -19 36 -54 101 -77 145 -23 44 -53 100 -67 125 -14 25 -48 88 -75 140 -28
52 -62 115 -75 140 -14 25 -48 88 -75 140 -28 52 -64 120 -80 150 -17 30 -51
93 -75 140 -44 83 -86 161 -153 285 -57 107 -117 218 -155 290 -21 38 -52 97
-70 130 -18 33 -50 92 -70 130 -46 88 -125 234 -225 420 -18 33 -54 101 -80
150 -58 109 -116 218 -163 305 -19 36 -51 97 -72 135 -20 39 -55 104 -77 145
-22 41 -58 109 -80 150 -49 91 -148 275 -223 415 -18 33 -49 92 -70 130 -20
39 -56 106 -80 150 -93 174 -109 203 -155 290 -26 50 -61 113 -76 142 l-29 52
0 274 c0 262 -1 275 -21 301 -29 37 -95 37 -130 0z m5167 -11917 c17 -9 43
-32 58 -52 23 -30 28 -47 29 -93 1 -135 -128 -221 -243 -162 -145 74 -128 277
27 323 50 14 78 11 129 -16z m961 8 c51 -21 70 -41 93 -93 25 -56 25 -78 -1
-136 -38 -88 -145 -129 -225 -88 -49 25 -77 56 -97 108 -28 73 11 166 86 203
50 25 94 27 144 6z m990 -4 c122 -56 130 -229 14 -302 -80 -52 -164 -33 -228
50 -28 35 -33 51 -33 94 0 132 126 212 247 158z m976 4 c19 -8 49 -33 67 -55
28 -35 32 -49 33 -100 0 -48 -5 -67 -26 -99 -71 -106 -212 -106 -288 1 -35 48
-34 149 0 195 48 64 140 89 214 58z"/>
<path id="aft-sail" d="M7790 12452 c-8 -11 -42 -52 -75 -92 -33 -40 -73 -89 -90 -110 -16
-21 -57 -70 -90 -110 -33 -40 -73 -90 -90 -110 -71 -89 -199 -245 -205 -250
-3 -3 -13 -14 -21 -26 -8 -11 -31 -41 -51 -65 -104 -124 -332 -404 -473 -579
-44 -56 -109 -134 -115 -140 -3 -3 -35 -41 -70 -85 -36 -44 -87 -107 -115
-140 -27 -33 -66 -81 -85 -105 -19 -24 -72 -89 -118 -145 -94 -113 -86 -104
-182 -222 -102 -126 -130 -161 -170 -208 -19 -23 -60 -72 -90 -110 -30 -37
-91 -111 -135 -164 -44 -54 -105 -128 -135 -166 -30 -37 -72 -89 -94 -114 -55
-66 -67 -80 -111 -136 -22 -27 -64 -79 -93 -115 -30 -36 -59 -72 -65 -80 -30
-38 -99 -122 -167 -205 -41 -50 -100 -122 -130 -160 -30 -37 -72 -89 -94 -114
-53 -64 -65 -79 -111 -136 -22 -27 -50 -61 -62 -75 -12 -14 -36 -44 -55 -67
-105 -133 -194 -239 -205 -246 -7 -4 -13 -12 -13 -18 0 -5 -28 -42 -62 -82
-35 -40 -79 -92 -98 -116 -19 -25 -60 -74 -90 -111 -30 -36 -89 -108 -130
-159 -41 -51 -79 -98 -85 -105 -5 -6 -28 -33 -50 -61 -22 -27 -47 -57 -56 -66
-9 -9 -21 -24 -25 -32 -5 -8 -27 -36 -49 -62 -22 -27 -56 -67 -75 -90 -35 -41
-68 -82 -132 -162 -18 -23 -77 -95 -130 -160 -53 -65 -141 -172 -195 -239 -54
-67 -113 -139 -131 -160 -18 -21 -69 -84 -115 -140 -76 -93 -247 -302 -286
-349 -9 -11 -34 -42 -56 -70 -22 -27 -74 -91 -115 -140 -41 -50 -91 -111 -110
-135 -19 -24 -48 -59 -64 -77 -16 -19 -40 -49 -55 -68 -41 -54 -213 -265 -260
-320 -63 -73 -67 -78 -186 -225 -60 -74 -168 -206 -239 -293 -72 -88 -140
-171 -151 -186 -16 -22 -80 -99 -130 -157 -5 -7 -50 -62 -100 -124 -49 -61
-128 -158 -175 -215 -47 -57 -107 -131 -135 -166 -27 -34 -66 -81 -85 -104
-19 -23 -60 -72 -90 -109 -30 -38 -64 -78 -75 -90 -11 -13 -41 -49 -66 -82
-26 -32 -95 -117 -153 -189 -58 -71 -106 -138 -106 -147 0 -13 13 -18 58 -23
31 -3 80 -10 107 -15 28 -5 75 -12 105 -15 30 -3 93 -12 140 -20 47 -8 139
-21 205 -30 66 -9 143 -20 170 -25 28 -5 73 -12 100 -15 28 -3 88 -12 135 -20
47 -7 139 -21 205 -30 66 -9 158 -23 205 -30 47 -8 139 -22 205 -31 66 -8 155
-22 198 -30 42 -8 93 -14 111 -14 18 0 64 -6 102 -14 38 -8 125 -22 194 -31
69 -9 163 -23 210 -30 47 -8 139 -21 205 -30 66 -9 140 -20 165 -25 25 -5 70
-12 100 -15 30 -4 93 -12 140 -20 47 -8 139 -21 205 -30 66 -9 158 -22 205
-30 47 -8 139 -21 205 -30 66 -9 140 -20 165 -25 25 -5 87 -14 139 -20 52 -6
97 -13 101 -15 4 -3 43 -9 86 -15 89 -11 244 -33 349 -49 39 -6 122 -18 185
-27 63 -8 135 -19 160 -24 25 -5 87 -14 139 -20 52 -6 98 -13 103 -16 4 -3 43
-9 86 -14 42 -5 122 -16 177 -24 55 -8 136 -20 180 -26 44 -6 116 -18 160 -26
102 -18 108 -13 89 71 -30 130 -70 329 -85 425 -5 35 -14 80 -18 100 -5 19
-17 89 -26 155 -9 66 -23 165 -31 220 -15 108 -31 256 -44 430 -4 61 -14 180
-21 265 -16 208 -16 1218 0 1435 7 88 16 214 21 280 13 187 39 465 45 475 3 4
9 54 15 111 15 161 76 585 100 699 5 25 12 65 15 90 3 25 12 77 20 115 8 39
22 111 31 160 8 50 22 122 30 160 32 153 47 223 61 285 8 36 21 93 29 128 28
124 45 198 58 247 19 71 37 144 46 185 5 19 18 71 30 115 12 44 26 98 31 120
4 22 20 76 34 119 14 43 25 86 25 95 0 8 6 33 14 56 8 22 22 67 31 100 10 33
24 78 30 100 7 22 21 67 30 100 10 33 24 78 31 100 6 22 27 87 45 145 17 58
38 119 46 137 7 17 13 36 13 42 0 11 46 151 105 316 20 55 44 125 54 155 30
94 112 314 127 342 8 14 14 32 14 39 0 12 47 138 75 204 8 17 34 84 60 150 26
66 53 134 60 150 7 17 35 82 60 145 26 63 58 138 70 165 12 28 48 111 80 185
32 74 75 173 96 218 22 46 39 85 39 87 0 6 156 330 241 499 49 98 89 184 89
191 0 7 5 15 12 17 6 2 9 10 7 17 -4 10 -9 8 -19 -7z"/>
<path d="M722 2764 c10 -10 109 -13 103 -3 -4 5 -29 9 -57 9 -28 0 -49 -3 -46
-6z"/>
</g>
<path d="M520 1368 C810 1384 1320 1384 1630 1366"
 fill="none" stroke="currentColor" stroke-width="32" stroke-linecap="round"
 opacity="0.42"/>
</g>

<g id="colored-sails">
  <use href="#aft-sail" xlink:href="#aft-sail"
   transform="translate(0 1353) scale(0.1 -0.1)"/>
  <path d="M815 18 L590 1012 L1324 1010 Z"/>
  <path d="M1377 168 L1370 1010 L1788 1008 Z"/>
</g>

<g id="rigging" fill="none" stroke="currentColor" stroke-linecap="round">
  <path d="M808 14 V1030 M1367 162 V1030" stroke-width="18"/>
</g>

<g id="portholes" fill="currentColor">
  <circle cx="1317" cy="1214" r="18"/>
  <circle cx="1415" cy="1214" r="18"/>
  <circle cx="1513" cy="1214" r="18"/>
  <circle cx="1611" cy="1214" r="18"/>
</g>
</defs>

<g id="dusk-ship">
  <use href="#ship-base" xlink:href="#ship-base" color="#b8ad99"/>
  <use href="#colored-sails" xlink:href="#colored-sails" fill="#a85450"/>
  <use href="#rigging" xlink:href="#rigging" color="#c9bea9"/>
  <use href="#portholes" xlink:href="#portholes" color="#e3b467"/>
</g>

<g id="dawn-ship" transform="translate(1800 0)">
  <use href="#ship-base" xlink:href="#ship-base" color="#3b352e"/>
  <use href="#colored-sails" xlink:href="#colored-sails" fill="#91463f"/>
  <use href="#rigging" xlink:href="#rigging" color="#4c4338"/>
  <use href="#portholes" xlink:href="#portholes" color="#b77a35"/>
</g>

</svg>
